<?xml version="1.0"?>
<svg width="350"
    height="240"
    xmlns="http://www.w3.org/2000/svg">
 <!-- Created with SVG-edit - https://github.com/SVG-Edit/svgedit-->
 <g class="layer">
  <title>Layer 1</title>
  <path d="m54.5,22.700012l-15.5,27.299988l-18,48l-12,44l-1,32l1,32l10,18l18,6l52,-49l12,-10l15,-5l14,-4l104,2l13,11l10,5c27,35 41.5,51.700012 42.5,51.700012c1,0 23,-12 22.5,-12.700012c-0.5,-0.700012 8.5,-53.299988 8,-37c-0.5,16.299988 -2.5,-47.299988 -3,-48c-0.5,-0.700012 -12.5,-53.299988 -13,-54c-0.5,-0.700012 -19.5,-42.299988 -20,-43c-0.5,-0.700012 -16.5,-13.299988 -17,-14c-0.5,-0.700012 -53.5,-5.299988 -54,-6c-0.5,-0.700012 -46.5,-2.299988 -47,-3c-0.5,-0.700012 -50.5,1.700012 -51,1c-0.5,-0.700012 -70.5,7.700012 -70.5,7.700012z" fill="#e5e5e5" id="svg_1" stroke="#000000" stroke-width="5"/>
 </g>
</svg>